<mxfile host="app.diagrams.net" modified="2023-05-24T07:45:46.126Z" agent="Mozilla/5.0 (Windows NT 10.0; Win64; x64) AppleWebKit/537.36 (KHTML, like Gecko) Chrome/113.0.0.0 Safari/537.36 Edg/113.0.1774.50" etag="kIXHOhdnGRb1kC_9eGjw" version="21.3.3" type="device">
  <diagram name="Page-1" id="y5Jj0muLnSd2WHnL5ocM">
    <mxGraphModel dx="794" dy="430" grid="1" gridSize="10" guides="1" tooltips="1" connect="1" arrows="1" fold="1" page="1" pageScale="1" pageWidth="850" pageHeight="1100" math="0" shadow="0">
      <root>
        <mxCell id="0" />
        <mxCell id="1" parent="0" />
        <mxCell id="r9noXsGCwt5rJGWpN1p4-10" style="orthogonalLoop=1;jettySize=auto;html=1;strokeWidth=2;curved=1;" edge="1" parent="1" source="r9noXsGCwt5rJGWpN1p4-1" target="r9noXsGCwt5rJGWpN1p4-2">
          <mxGeometry relative="1" as="geometry">
            <Array as="points">
              <mxPoint x="350" y="200" />
            </Array>
          </mxGeometry>
        </mxCell>
        <mxCell id="r9noXsGCwt5rJGWpN1p4-1" value="listing-service" style="rounded=1;whiteSpace=wrap;html=1;strokeColor=#6c8ebf;strokeWidth=2;fillColor=#dae8fc;fontFamily=PT Sans;fontSource=https%3A%2F%2Ffonts.googleapis.com%2Fcss%3Ffamily%3DPT%2BSans;fontStyle=1;fontSize=14;" vertex="1" parent="1">
          <mxGeometry x="390" y="120" width="160" height="50" as="geometry" />
        </mxCell>
        <mxCell id="r9noXsGCwt5rJGWpN1p4-8" style="orthogonalLoop=1;jettySize=auto;html=1;curved=1;strokeWidth=2;" edge="1" parent="1" source="r9noXsGCwt5rJGWpN1p4-2" target="r9noXsGCwt5rJGWpN1p4-6">
          <mxGeometry relative="1" as="geometry">
            <Array as="points">
              <mxPoint x="480" y="240" />
            </Array>
          </mxGeometry>
        </mxCell>
        <mxCell id="r9noXsGCwt5rJGWpN1p4-2" value="reservation-service" style="rounded=1;whiteSpace=wrap;html=1;strokeColor=#6c8ebf;strokeWidth=2;fillColor=#dae8fc;fontFamily=PT Sans;fontSource=https%3A%2F%2Ffonts.googleapis.com%2Fcss%3Ffamily%3DPT%2BSans;fontStyle=1;fontSize=14;" vertex="1" parent="1">
          <mxGeometry x="300" y="230" width="160" height="50" as="geometry" />
        </mxCell>
        <mxCell id="r9noXsGCwt5rJGWpN1p4-12" style="orthogonalLoop=1;jettySize=auto;html=1;curved=1;" edge="1" parent="1" source="r9noXsGCwt5rJGWpN1p4-3" target="r9noXsGCwt5rJGWpN1p4-15">
          <mxGeometry relative="1" as="geometry">
            <mxPoint x="270" y="110" as="targetPoint" />
            <Array as="points">
              <mxPoint x="220" y="90" />
            </Array>
          </mxGeometry>
        </mxCell>
        <mxCell id="r9noXsGCwt5rJGWpN1p4-3" value="homefront" style="rounded=1;whiteSpace=wrap;html=1;strokeColor=#82b366;strokeWidth=2;fillColor=#d5e8d4;fontFamily=PT Sans;fontSource=https%3A%2F%2Ffonts.googleapis.com%2Fcss%3Ffamily%3DPT%2BSans;fontStyle=1;fontSize=14;" vertex="1" parent="1">
          <mxGeometry x="10" y="60" width="160" height="50" as="geometry" />
        </mxCell>
        <mxCell id="r9noXsGCwt5rJGWpN1p4-13" style="orthogonalLoop=1;jettySize=auto;html=1;curved=1;" edge="1" parent="1" source="r9noXsGCwt5rJGWpN1p4-4" target="r9noXsGCwt5rJGWpN1p4-15">
          <mxGeometry relative="1" as="geometry">
            <Array as="points">
              <mxPoint x="210" y="150" />
            </Array>
          </mxGeometry>
        </mxCell>
        <mxCell id="r9noXsGCwt5rJGWpN1p4-4" value="merchant app" style="rounded=1;whiteSpace=wrap;html=1;strokeColor=#82b366;strokeWidth=2;fillColor=#d5e8d4;fontFamily=PT Sans;fontSource=https%3A%2F%2Ffonts.googleapis.com%2Fcss%3Ffamily%3DPT%2BSans;fontStyle=1;fontSize=14;" vertex="1" parent="1">
          <mxGeometry x="10" y="150" width="160" height="50" as="geometry" />
        </mxCell>
        <mxCell id="r9noXsGCwt5rJGWpN1p4-14" style="orthogonalLoop=1;jettySize=auto;html=1;curved=1;" edge="1" parent="1" source="r9noXsGCwt5rJGWpN1p4-5" target="r9noXsGCwt5rJGWpN1p4-15">
          <mxGeometry relative="1" as="geometry">
            <Array as="points">
              <mxPoint x="230" y="210" />
            </Array>
          </mxGeometry>
        </mxCell>
        <mxCell id="r9noXsGCwt5rJGWpN1p4-5" value="admin app" style="rounded=1;whiteSpace=wrap;html=1;strokeColor=#82b366;strokeWidth=2;fillColor=#d5e8d4;fontFamily=PT Sans;fontSource=https%3A%2F%2Ffonts.googleapis.com%2Fcss%3Ffamily%3DPT%2BSans;fontStyle=1;fontSize=14;" vertex="1" parent="1">
          <mxGeometry x="10" y="240" width="160" height="50" as="geometry" />
        </mxCell>
        <mxCell id="r9noXsGCwt5rJGWpN1p4-6" value="payment-service" style="rounded=1;whiteSpace=wrap;html=1;strokeColor=#6c8ebf;strokeWidth=2;fillColor=#dae8fc;fontFamily=PT Sans;fontSource=https%3A%2F%2Ffonts.googleapis.com%2Fcss%3Ffamily%3DPT%2BSans;fontStyle=1;fontSize=14;" vertex="1" parent="1">
          <mxGeometry x="550" y="180" width="160" height="50" as="geometry" />
        </mxCell>
        <mxCell id="r9noXsGCwt5rJGWpN1p4-16" style="rounded=0;orthogonalLoop=1;jettySize=auto;html=1;" edge="1" parent="1" source="r9noXsGCwt5rJGWpN1p4-15" target="r9noXsGCwt5rJGWpN1p4-1">
          <mxGeometry relative="1" as="geometry" />
        </mxCell>
        <mxCell id="r9noXsGCwt5rJGWpN1p4-15" value="BFF" style="rounded=1;whiteSpace=wrap;html=1;strokeColor=#6c8ebf;strokeWidth=2;fillColor=#dae8fc;fontFamily=PT Sans;fontSource=https%3A%2F%2Ffonts.googleapis.com%2Fcss%3Ffamily%3DPT%2BSans;fontStyle=1;fontSize=14;" vertex="1" parent="1">
          <mxGeometry x="270" y="40" width="160" height="50" as="geometry" />
        </mxCell>
      </root>
    </mxGraphModel>
  </diagram>
</mxfile>
